<svg width="61" height="61" viewBox="0 0 61 61" fill="none" xmlns="http://www.w3.org/2000/svg">
<g clip-path="url(#clip0_511_966)">
<path d="M16.6363 29.1135C16.6363 28.3471 16.0162 27.7271 15.2499 27.7271C14.4836 27.7271 13.8635 28.3471 13.8635 29.1135C13.8635 32.754 17.8791 37.7525 18.3368 38.3117C18.6117 38.6448 19.0096 38.818 19.4103 38.818C19.719 38.818 20.0304 38.7151 20.2889 38.5039C20.8806 38.0178 20.9658 37.1447 20.4812 36.5516C18.9948 34.7402 16.6363 31.1198 16.6363 29.1135Z" fill="white"/>
<path d="M45.7501 27.7271C44.9838 27.7271 44.3637 28.3471 44.3637 29.1135C44.3637 31.1131 42.0052 34.7375 40.5187 36.553C40.0341 37.1447 40.1206 38.0179 40.7124 38.5039C40.9696 38.7151 41.281 38.818 41.591 38.818C41.9917 38.818 42.3884 38.6448 42.6633 38.3117C43.1209 37.7525 47.1365 32.7541 47.1365 29.1135C47.1365 28.3471 46.5164 27.7271 45.7501 27.7271Z" fill="white"/>
<path d="M30.5002 27.7271C29.7339 27.7271 29.1138 28.3471 29.1138 29.1135V37.4316C29.1138 38.1979 29.7339 38.818 30.5002 38.818C31.2665 38.818 31.8866 38.1979 31.8866 37.4316V29.1135C31.8865 28.3471 31.2664 27.7271 30.5002 27.7271Z" fill="white"/>
<path d="M45.75 5.5455C44.9099 5.5455 44.0319 5.65663 43.1202 5.82598C40.0668 2.26658 35.5467 0 30.5001 0C25.4534 0 20.9332 2.26658 17.8799 5.82585C16.9681 5.65663 16.0901 5.54537 15.2501 5.54537C6.84106 5.5455 0 12.3866 0 20.7955C0 26.5575 3.24929 31.7956 8.35068 34.3856L8.32365 55.3367C8.32235 56.849 8.90982 58.2706 9.97806 59.3401C11.0476 60.4111 12.4678 61 13.9801 61H47.0254C50.1448 61 52.6819 58.4628 52.6819 55.3435V34.3653C57.7644 31.7686 61.0001 26.5385 61.0001 20.7955C61 12.3866 54.1589 5.5455 45.75 5.5455ZM49.9091 55.3436C49.9091 56.9331 48.6149 58.2274 47.0253 58.2274H13.98C13.2097 58.2274 12.4853 57.9268 11.9397 57.3813C11.3954 56.8357 11.0949 56.1114 11.0962 55.3397L11.1035 49.9091H49.9091V55.3436ZM50.7675 32.2072C50.6943 32.237 50.6253 32.2722 50.5603 32.3142C50.3856 32.4225 50.2421 32.5661 50.1351 32.7312C50.0269 32.8949 49.9537 33.0846 49.9239 33.2876C49.9117 33.3648 49.9077 33.442 49.909 33.5205V47.1363H11.107L11.1248 33.5393C11.1261 33.4635 11.1221 33.3863 11.1113 33.3119C11.0815 33.102 11.0043 32.907 10.8919 32.7378C10.7862 32.5794 10.6482 32.4413 10.4803 32.3357C10.4113 32.2924 10.3381 32.2544 10.2623 32.2232C5.712 30.2334 2.77269 25.7519 2.77269 20.7955C2.77269 13.915 8.36966 8.31819 15.25 8.31819C15.5189 8.31819 15.8027 8.35068 16.0813 8.37265C14.6786 10.8104 13.8636 13.6274 13.8636 16.6364C13.8636 17.4027 14.4837 18.0228 15.25 18.0228C16.0163 18.0228 16.6364 17.4027 16.6364 16.6364C16.6364 8.99235 22.856 2.77269 30.5001 2.77269C38.1441 2.77269 44.3636 8.99235 44.3636 16.6364C44.3636 17.4027 44.9837 18.0228 45.75 18.0228C46.5163 18.0228 47.1364 17.4027 47.1364 16.6364C47.1364 13.6274 46.3214 10.8105 44.9187 8.37265C45.1973 8.35068 45.4811 8.31819 45.75 8.31819C52.6305 8.31819 58.2273 13.9152 58.2273 20.7955C58.2273 25.7344 55.3002 30.2102 50.7675 32.2072Z" fill="white"/>
</g>
<defs>
<clipPath id="clip0_511_966">
<rect width="61" height="61" fill="white"/>
</clipPath>
</defs>
</svg>
