<svg width="95" height="121" viewBox="0 0 95 121" fill="none" xmlns="http://www.w3.org/2000/svg">
<path d="M54.25 97H31.8068V24.2727H55.2443C62.2992 24.2727 68.3362 25.7287 73.3551 28.6406C78.3741 31.5289 82.2211 35.6837 84.8963 41.1051C87.5715 46.5028 88.9091 52.9659 88.9091 60.4943C88.9091 68.0701 87.5597 74.5923 84.8608 80.0611C82.1619 85.5062 78.232 89.6965 73.071 92.6321C67.91 95.544 61.6364 97 54.25 97ZM40.6136 89.1875H53.6818C59.6951 89.1875 64.6785 88.0275 68.6321 85.7074C72.5857 83.3873 75.5331 80.0848 77.4744 75.7997C79.4157 71.5147 80.3864 66.4129 80.3864 60.4943C80.3864 54.6231 79.4276 49.5687 77.5099 45.331C75.5923 41.0696 72.7277 37.8026 68.9162 35.5298C65.1046 33.2334 60.358 32.0852 54.6761 32.0852H40.6136V89.1875Z" fill="white"/>
<path d="M4.82955 32.0852V24.2727H59.375V32.0852H36.5057V97H27.6989V32.0852H4.82955Z" fill="black"/>
</svg>
