<svg width="70" height="70" viewBox="0 0 70 70" fill="none" xmlns="http://www.w3.org/2000/svg">
<g clip-path="url(#clip0_511_949)">
<path d="M29.508 59.26C27.9714 59.7958 26.3884 60.1356 24.7824 60.2813C25.9246 59.7143 27.0552 58.9833 28.1582 58.0889C28.5982 57.7323 28.6657 57.0863 28.3089 56.6462C27.9521 56.2063 27.3061 56.1389 26.8662 56.4955C24.0464 58.782 21.5155 59.5847 19.4265 59.6736C21.0107 58.1922 22.9223 55.502 25.1789 50.886C25.4277 50.377 25.2168 49.7628 24.7079 49.514C24.199 49.2655 23.5847 49.4762 23.3359 49.985C19.9683 56.8734 17.3668 59.2238 16.2695 59.2235C16.196 59.2235 16.1292 59.213 16.0694 59.1926C15.7029 59.0673 15.469 58.4888 15.3622 58.155C13.5679 52.5499 18.7645 32.8729 25.6337 23.2898L30.261 16.8345C30.5216 16.4709 30.7827 15.9501 30.9961 15.3684L31.1418 14.9714L31.2092 14.9944L31.0815 15.3974C30.8943 15.9882 30.7821 16.5599 30.7656 17.0071L30.4822 24.749C30.4615 25.3152 30.9037 25.7908 31.4697 25.8116C31.4826 25.812 31.4953 25.8123 31.5079 25.8123C32.0571 25.8123 32.512 25.3774 32.5322 24.8241L32.7729 18.2473L34.2028 22.3873C34.3494 22.8118 34.7469 23.0785 35.1721 23.0785C35.2832 23.0785 35.3961 23.0603 35.507 23.022C36.0426 22.8371 36.3267 22.2531 36.1418 21.7177L36.0912 21.5714L36.0962 21.5798C36.3889 22.0648 37.0191 22.2211 37.5043 21.9283C37.9894 21.6356 38.1454 21.0053 37.8528 20.5202L36.3782 18.076C36.1057 17.6242 36.0228 17.0714 36.1511 16.5595L38.4701 7.29915C38.6257 6.67798 38.4809 6.03862 38.0728 5.54519C37.6647 5.05176 37.0652 4.78945 36.4247 4.82556L30.9985 5.13217C30.2455 5.17484 29.5894 5.63039 29.2861 6.32117L26.275 13.1851C26.0632 13.6681 25.6596 14.0543 25.1675 14.2448L14.5453 18.3583C9.87263 20.1678 6.05112 23.2664 3.49356 27.3187C1.11912 31.081 -0.0873842 35.4824 0.00438228 40.047C0.0961487 44.6117 1.47866 48.9611 4.00245 52.6248C6.72084 56.5712 10.6639 59.5134 15.4057 61.1336C17.9087 61.9889 20.4538 62.4167 22.9709 62.4166C25.4242 62.4166 27.8509 62.01 30.183 61.1968C30.7178 61.0103 31.0002 60.4254 30.8137 59.8905C30.6272 59.3556 30.0428 59.0732 29.508 59.26ZM31.1505 7.17853L36.4611 6.87847L34.6749 14.0111L29.0034 12.0732L31.1505 7.17853ZM5.69226 51.4614C3.39701 48.1293 2.13949 44.1681 2.05593 40.006C1.97223 35.844 3.06946 31.8355 5.22892 28.4138C7.54974 24.7364 11.0276 21.9208 15.2867 20.2716L23.2562 17.1853L18.9277 20.0195C15.6975 22.1347 12.8628 25.2844 10.7296 29.1283C8.76158 32.6747 7.42051 36.7235 6.85103 40.8375C6.77335 41.3988 7.16531 41.9166 7.72644 41.9941C7.77417 42.0008 7.82149 42.004 7.8684 42.004C8.3725 42.004 8.81205 41.6321 8.88316 41.1187C10.0162 32.9318 14.2957 25.5045 20.0516 21.7356L27.9151 16.5867L23.9668 22.0947C20.7157 26.6301 17.4683 33.9386 15.2801 41.6447C13.3751 48.354 12.6051 54.1178 13.124 57.5204C12.101 56.6531 11.2323 55.5393 10.5289 54.1817C9.29413 51.7985 8.62728 48.7446 8.60061 45.3502C8.5961 44.7839 8.13248 44.324 7.56684 44.3327C7.00038 44.3372 6.54483 44.8 6.5492 45.3666C6.57765 48.9711 7.26638 52.1472 8.51555 54.7212C7.46058 53.7414 6.5131 52.653 5.69226 51.4614Z" fill="white"/>
<path d="M48.1503 21.4775C36.1022 21.4775 26.3003 31.2794 26.3003 43.3277C26.3003 55.3757 36.1021 65.1776 48.1503 65.1776C60.1985 65.1776 70.0003 55.3757 70.0003 43.3277C70.0001 31.2794 60.1983 21.4775 48.1503 21.4775ZM48.1503 63.1261C37.2333 63.1261 28.3517 54.2446 28.3517 43.3275C28.3517 32.4105 37.2332 23.5288 48.1503 23.5288C59.0673 23.5288 67.9488 32.4105 67.9488 43.3275C67.9488 54.2446 59.0672 63.1261 48.1503 63.1261Z" fill="white"/>
<path d="M48.1502 25.6079C38.3796 25.6079 30.4307 33.5569 30.4307 43.3274C30.4307 53.0979 38.3796 61.0468 48.1502 61.0468C57.9208 61.0468 65.8699 53.0979 65.8699 43.3274C65.8699 33.5569 57.9208 25.6079 48.1502 25.6079ZM48.1502 58.9956C39.5108 58.9956 32.4821 51.9669 32.4821 43.3276C32.4821 34.6883 39.5108 27.6595 48.1502 27.6595C56.7897 27.6595 63.8185 34.6883 63.8185 43.3276C63.8185 51.9669 56.7897 58.9956 48.1502 58.9956Z" fill="white"/>
<path d="M48.1502 30.6348C41.1515 30.6348 35.4578 36.3287 35.4578 43.3274C35.4578 50.326 41.1515 56.0199 48.1502 56.0199C52.843 56.0199 57.1358 53.4396 59.3533 49.2861C59.6201 48.7863 59.4312 48.165 58.9315 47.8982C58.4316 47.6312 57.8103 47.8203 57.5436 48.32C55.6836 51.8042 52.0843 53.9686 48.1502 53.9686C42.2828 53.9686 37.5092 49.1951 37.5092 43.3275C37.5092 37.4599 42.2828 32.6863 48.1502 32.6863C54.0178 32.6863 58.7915 37.4599 58.7915 43.3275C58.7915 43.7017 58.7703 44.0879 58.7285 44.475C58.6678 45.0381 59.0752 45.5439 59.6384 45.6047C60.2013 45.6656 60.7073 45.258 60.7682 44.6949C60.8177 44.2351 60.8429 43.775 60.8429 43.3277C60.8427 36.3287 55.1488 30.6348 48.1502 30.6348Z" fill="white"/>
<path d="M40.7703 43.3271C40.7703 47.3965 44.0808 50.707 48.1501 50.707C52.2194 50.707 55.53 47.3965 55.53 43.3271C55.53 39.2578 52.2193 35.9473 48.1501 35.9473C44.081 35.9473 40.7703 39.2578 40.7703 43.3271ZM53.4786 43.3271C53.4786 46.2652 51.0882 48.6556 48.1501 48.6556C45.2121 48.6556 42.8217 46.2652 42.8217 43.3271C42.8217 40.3891 45.212 37.9987 48.1501 37.9987C51.0883 37.9987 53.4786 40.389 53.4786 43.3271Z" fill="white"/>
</g>
<defs>
<clipPath id="clip0_511_949">
<rect width="70" height="70" fill="white"/>
</clipPath>
</defs>
</svg>
